<svg xmlns="http://www.w3.org/2000/svg" xmlns:xlink="http://www.w3.org/1999/xlink" width="18" height="59" viewBox="0 0 18 59"><defs><path id="zogca" d="M455.5 2170.253c.478.276.642.89.366 1.369l-16 27.776a1.014 1.014 0 0 1-.043.067c.015.022.03.045.043.069l16 28.068a1.02 1.02 0 0 1-.366 1.384.993.993 0 0 1-1.366-.371l-16-28.069c-.2-.349-.17-.769.042-1.08a1.004 1.004 0 0 1-.042-1.07l16-27.776a1 1 0 0 1 1.366-.367z"/></defs><g><g transform="translate(-438 -2170)"><use fill="#00c2f0" xlink:href="#zogca"/></g></g></svg>